<mxfile host="app.diagrams.net" modified="2023-10-04T15:13:48.218Z" agent="Mozilla/5.0 (Windows NT 10.0; Win64; x64) AppleWebKit/537.36 (KHTML, like Gecko) Chrome/117.0.0.0 Safari/537.36" etag="7IolZclmiLVyoSQtDhyq" version="21.6.8" type="device">
  <diagram name="Page-1" id="yqlNjA7bez41zTyLCbXt">
    <mxGraphModel dx="794" dy="471" grid="1" gridSize="10" guides="1" tooltips="1" connect="1" arrows="1" fold="1" page="1" pageScale="1" pageWidth="827" pageHeight="1169" math="0" shadow="0">
      <root>
        <mxCell id="0" />
        <mxCell id="1" parent="0" />
        <mxCell id="xmdv_gwNcd_gj5oSGgft-13" value="VPC" style="points=[[0,0],[0.25,0],[0.5,0],[0.75,0],[1,0],[1,0.25],[1,0.5],[1,0.75],[1,1],[0.75,1],[0.5,1],[0.25,1],[0,1],[0,0.75],[0,0.5],[0,0.25]];outlineConnect=0;gradientColor=none;html=1;whiteSpace=wrap;fontSize=12;fontStyle=0;container=1;pointerEvents=0;collapsible=0;recursiveResize=0;shape=mxgraph.aws4.group;grIcon=mxgraph.aws4.group_vpc;strokeColor=#248814;fillColor=#FFFFFF;verticalAlign=top;align=left;spacingLeft=30;fontColor=#AAB7B8;dashed=0;labelBackgroundColor=default;" parent="1" vertex="1">
          <mxGeometry x="120" y="280" width="520" height="410" as="geometry" />
        </mxCell>
        <mxCell id="xmdv_gwNcd_gj5oSGgft-32" value="" style="group" parent="xmdv_gwNcd_gj5oSGgft-13" vertex="1" connectable="0">
          <mxGeometry x="45" y="215" width="435" height="180" as="geometry" />
        </mxCell>
        <mxCell id="xmdv_gwNcd_gj5oSGgft-15" value="Private subnet" style="points=[[0,0],[0.25,0],[0.5,0],[0.75,0],[1,0],[1,0.25],[1,0.5],[1,0.75],[1,1],[0.75,1],[0.5,1],[0.25,1],[0,1],[0,0.75],[0,0.5],[0,0.25]];outlineConnect=0;gradientColor=none;html=1;whiteSpace=wrap;fontSize=12;fontStyle=0;container=0;pointerEvents=0;collapsible=0;recursiveResize=0;shape=mxgraph.aws4.group;grIcon=mxgraph.aws4.group_security_group;grStroke=0;strokeColor=#147EBA;fillColor=#E6F2F8;verticalAlign=top;align=left;spacingLeft=30;fontColor=#147EBA;dashed=0;" parent="xmdv_gwNcd_gj5oSGgft-32" vertex="1">
          <mxGeometry width="435" height="180" as="geometry" />
        </mxCell>
        <mxCell id="xmdv_gwNcd_gj5oSGgft-11" value="" style="group" parent="xmdv_gwNcd_gj5oSGgft-32" vertex="1" connectable="0">
          <mxGeometry x="35" y="20" width="360" height="140" as="geometry" />
        </mxCell>
        <mxCell id="xmdv_gwNcd_gj5oSGgft-31" value="" style="group" parent="xmdv_gwNcd_gj5oSGgft-11" vertex="1" connectable="0">
          <mxGeometry width="360" height="140" as="geometry" />
        </mxCell>
        <mxCell id="xmdv_gwNcd_gj5oSGgft-5" value="" style="rounded=1;whiteSpace=wrap;html=1;" parent="xmdv_gwNcd_gj5oSGgft-31" vertex="1">
          <mxGeometry width="360" height="140" as="geometry" />
        </mxCell>
        <mxCell id="xmdv_gwNcd_gj5oSGgft-6" value="Database Cluster" style="text;strokeColor=none;align=center;fillColor=none;html=1;verticalAlign=middle;whiteSpace=wrap;rounded=0;" parent="xmdv_gwNcd_gj5oSGgft-31" vertex="1">
          <mxGeometry x="95" y="120" width="170" as="geometry" />
        </mxCell>
        <mxCell id="xmdv_gwNcd_gj5oSGgft-7" value="DB Instance (R)" style="text;strokeColor=none;align=center;fillColor=none;html=1;verticalAlign=middle;whiteSpace=wrap;rounded=0;" parent="xmdv_gwNcd_gj5oSGgft-31" vertex="1">
          <mxGeometry x="42" y="90" width="116" as="geometry" />
        </mxCell>
        <mxCell id="xmdv_gwNcd_gj5oSGgft-8" value="DB Instance (W)" style="text;strokeColor=none;align=center;fillColor=none;html=1;verticalAlign=middle;whiteSpace=wrap;rounded=0;" parent="xmdv_gwNcd_gj5oSGgft-31" vertex="1">
          <mxGeometry x="212" y="90" width="116" as="geometry" />
        </mxCell>
        <mxCell id="xmdv_gwNcd_gj5oSGgft-27" value="" style="outlineConnect=0;dashed=0;verticalLabelPosition=bottom;verticalAlign=top;align=center;html=1;shape=mxgraph.aws3.db_on_instance;fillColor=#F58534;gradientColor=none;" parent="xmdv_gwNcd_gj5oSGgft-31" vertex="1">
          <mxGeometry x="70" y="20" width="60" height="64.5" as="geometry" />
        </mxCell>
        <mxCell id="xmdv_gwNcd_gj5oSGgft-28" value="" style="outlineConnect=0;dashed=0;verticalLabelPosition=bottom;verticalAlign=top;align=center;html=1;shape=mxgraph.aws3.db_on_instance;fillColor=#F58534;gradientColor=none;" parent="xmdv_gwNcd_gj5oSGgft-31" vertex="1">
          <mxGeometry x="240" y="20" width="60" height="64.5" as="geometry" />
        </mxCell>
        <mxCell id="xmdv_gwNcd_gj5oSGgft-34" value="" style="group" parent="xmdv_gwNcd_gj5oSGgft-13" vertex="1" connectable="0">
          <mxGeometry x="45" y="20" width="435" height="180" as="geometry" />
        </mxCell>
        <mxCell id="xmdv_gwNcd_gj5oSGgft-16" value="Public subnet" style="points=[[0,0],[0.25,0],[0.5,0],[0.75,0],[1,0],[1,0.25],[1,0.5],[1,0.75],[1,1],[0.75,1],[0.5,1],[0.25,1],[0,1],[0,0.75],[0,0.5],[0,0.25]];outlineConnect=0;gradientColor=none;html=1;whiteSpace=wrap;fontSize=12;fontStyle=0;container=0;pointerEvents=0;collapsible=0;recursiveResize=0;shape=mxgraph.aws4.group;grIcon=mxgraph.aws4.group_security_group;grStroke=0;strokeColor=#248814;fillColor=#E9F3E6;verticalAlign=top;align=left;spacingLeft=30;fontColor=#248814;dashed=0;" parent="xmdv_gwNcd_gj5oSGgft-34" vertex="1">
          <mxGeometry width="435" height="180" as="geometry" />
        </mxCell>
        <mxCell id="xmdv_gwNcd_gj5oSGgft-33" value="" style="group" parent="xmdv_gwNcd_gj5oSGgft-34" vertex="1" connectable="0">
          <mxGeometry x="35" y="20" width="360" height="140" as="geometry" />
        </mxCell>
        <mxCell id="xmdv_gwNcd_gj5oSGgft-1" value="" style="rounded=1;whiteSpace=wrap;html=1;" parent="xmdv_gwNcd_gj5oSGgft-33" vertex="1">
          <mxGeometry width="360" height="140" as="geometry" />
        </mxCell>
        <mxCell id="a3HZ6ctSTT1BNP-n9Dv_-3" value="" style="sketch=0;aspect=fixed;pointerEvents=1;shadow=0;dashed=0;html=1;strokeColor=none;labelPosition=center;verticalLabelPosition=bottom;verticalAlign=top;align=center;fillColor=#00188D;shape=mxgraph.mscae.enterprise.application_server" parent="xmdv_gwNcd_gj5oSGgft-33" vertex="1">
          <mxGeometry x="120" y="30" width="43" height="50" as="geometry" />
        </mxCell>
        <mxCell id="a3HZ6ctSTT1BNP-n9Dv_-4" value="" style="sketch=0;aspect=fixed;pointerEvents=1;shadow=0;dashed=0;html=1;strokeColor=none;labelPosition=center;verticalLabelPosition=bottom;verticalAlign=top;align=center;fillColor=#00188D;shape=mxgraph.mscae.enterprise.application_server" parent="xmdv_gwNcd_gj5oSGgft-33" vertex="1">
          <mxGeometry x="40" y="30" width="43" height="50" as="geometry" />
        </mxCell>
        <mxCell id="a3HZ6ctSTT1BNP-n9Dv_-6" value="" style="sketch=0;aspect=fixed;pointerEvents=1;shadow=0;dashed=0;html=1;strokeColor=none;labelPosition=center;verticalLabelPosition=bottom;verticalAlign=top;align=center;fillColor=#00188D;shape=mxgraph.mscae.enterprise.application_server" parent="xmdv_gwNcd_gj5oSGgft-33" vertex="1">
          <mxGeometry x="199" y="30" width="43" height="50" as="geometry" />
        </mxCell>
        <mxCell id="a3HZ6ctSTT1BNP-n9Dv_-7" value="" style="sketch=0;aspect=fixed;pointerEvents=1;shadow=0;dashed=0;html=1;strokeColor=none;labelPosition=center;verticalLabelPosition=bottom;verticalAlign=top;align=center;fillColor=#00188D;shape=mxgraph.mscae.enterprise.application_server" parent="xmdv_gwNcd_gj5oSGgft-33" vertex="1">
          <mxGeometry x="280" y="30" width="43" height="50" as="geometry" />
        </mxCell>
        <mxCell id="xmdv_gwNcd_gj5oSGgft-2" value="Application Servers&lt;br&gt;" style="text;strokeColor=none;align=center;fillColor=none;html=1;verticalAlign=middle;whiteSpace=wrap;rounded=0;" parent="xmdv_gwNcd_gj5oSGgft-33" vertex="1">
          <mxGeometry x="95" y="120" width="170" as="geometry" />
        </mxCell>
        <mxCell id="xmdv_gwNcd_gj5oSGgft-44" value="" style="endArrow=classic;startArrow=classic;html=1;rounded=0;" parent="xmdv_gwNcd_gj5oSGgft-13" edge="1">
          <mxGeometry width="50" height="50" relative="1" as="geometry">
            <mxPoint x="262" y="240" as="sourcePoint" />
            <mxPoint x="262" y="180" as="targetPoint" />
          </mxGeometry>
        </mxCell>
        <mxCell id="xmdv_gwNcd_gj5oSGgft-24" value="" style="rounded=1;whiteSpace=wrap;html=1;" parent="1" vertex="1">
          <mxGeometry x="120" y="140" width="520" height="120" as="geometry" />
        </mxCell>
        <mxCell id="a3HZ6ctSTT1BNP-n9Dv_-2" value="" style="sketch=0;outlineConnect=0;fontColor=#232F3E;gradientColor=none;fillColor=#232F3D;strokeColor=default;dashed=0;verticalLabelPosition=bottom;verticalAlign=top;align=center;html=1;fontSize=12;fontStyle=0;aspect=fixed;pointerEvents=1;shape=mxgraph.aws4.internet_alt2;perimeterSpacing=2;strokeWidth=2;" parent="1" vertex="1">
          <mxGeometry x="341.5" y="60" width="79" height="79" as="geometry" />
        </mxCell>
        <mxCell id="xmdv_gwNcd_gj5oSGgft-22" value="" style="sketch=0;outlineConnect=0;fontColor=#232F3E;gradientColor=none;fillColor=#4D27AA;strokeColor=none;dashed=0;verticalLabelPosition=bottom;verticalAlign=top;align=center;html=1;fontSize=12;fontStyle=0;aspect=fixed;pointerEvents=1;shape=mxgraph.aws4.application_load_balancer;" parent="1" vertex="1">
          <mxGeometry x="341" y="150" width="78" height="78" as="geometry" />
        </mxCell>
        <mxCell id="xmdv_gwNcd_gj5oSGgft-25" value="" style="endArrow=classic;startArrow=classic;html=1;rounded=0;exitX=0.5;exitY=0;exitDx=0;exitDy=0;" parent="1" source="xmdv_gwNcd_gj5oSGgft-1" edge="1">
          <mxGeometry width="50" height="50" relative="1" as="geometry">
            <mxPoint x="380" y="310" as="sourcePoint" />
            <mxPoint x="380" y="260" as="targetPoint" />
          </mxGeometry>
        </mxCell>
        <mxCell id="xmdv_gwNcd_gj5oSGgft-50" value="Application Load Balancer" style="text;strokeColor=none;align=center;fillColor=none;html=1;verticalAlign=middle;whiteSpace=wrap;rounded=0;" parent="1" vertex="1">
          <mxGeometry x="295" y="240" width="170" as="geometry" />
        </mxCell>
      </root>
    </mxGraphModel>
  </diagram>
</mxfile>
